# xmcd CD database file
#
# Track frame offsets:
#	150
#	7542
#	21100
#	33637
#	48096
#	63743
#	80182
#	94216
#	107139
#	119254
#	133770
#	146503
#	162017
#	176762
#	243020
#	314646
#
# Disc length: 4670 seconds
#
# Revision: 0
# Processed by: cddbd v1.5.2PL0 Copyright (c) Steve Scherf et al.
# Submitted via: CDex 1.51
#
DISCID=d4123c10
DTITLE=Charlie Parker - The Bebop Revolution 1950 - 1952
DYEAR=1952
DGENRE=Jazz
TTITLE0=Celebrity
TTITLE1=Ballade
TTITLE2=Au Private
TTITLE3=She Rote
TTITLE4=K.C. Blues
TTITLE5=Star Eyes
TTITLE6=My Little Suede Shoes
TTITLE7=Blues For Alice
TTITLE8=Si Si
TTITLE9=Swedish Schnapps
TTITLE10=Back Home Blues
TTITLE11=Lover Man
TTITLE12=Begin The Beguine
TTITLE13=Jam Blues
TTITLE14=What Is This Thing Called Love ?
TTITLE15=Funky Blues
EXTD=YEAR: 1952
EXTT0=
EXTT1=
EXTT2=
EXTT3=
EXTT4=
EXTT5=
EXTT6=
EXTT7=
EXTT8=
EXTT9=
EXTT10=
EXTT11=
EXTT12=
EXTT13=
EXTT14=
EXTT15=
PLAYORDER=
